<mxfile host="app.diagrams.net" agent="Mozilla/5.0 (Windows NT 10.0; Win64; x64) AppleWebKit/537.36 (KHTML, like Gecko) Chrome/137.0.0.0 Safari/537.36 OPR/121.0.0.0" version="28.2.4">
  <diagram name="Page-1" id="2YUKTtkZgOKcY_OXYWpH">
    <mxGraphModel dx="1000" dy="586" grid="1" gridSize="10" guides="1" tooltips="1" connect="1" arrows="1" fold="1" page="1" pageScale="1" pageWidth="850" pageHeight="1100" math="0" shadow="0">
      <root>
        <mxCell id="0" />
        <mxCell id="1" parent="0" />
        <mxCell id="0OqVhHqsOl2ay1qzQMOd-1" value="Quản trị viên&lt;div&gt;&lt;br&gt;&lt;/div&gt;" style="shape=umlActor;verticalLabelPosition=bottom;verticalAlign=top;html=1;outlineConnect=0;" parent="1" vertex="1">
          <mxGeometry x="130" y="110" width="30" height="60" as="geometry" />
        </mxCell>
        <mxCell id="0OqVhHqsOl2ay1qzQMOd-3" value="GD_TrangChu" style="text;html=1;align=center;verticalAlign=middle;whiteSpace=wrap;rounded=0;" parent="1" vertex="1">
          <mxGeometry x="265" y="90" width="60" height="30" as="geometry" />
        </mxCell>
        <mxCell id="0OqVhHqsOl2ay1qzQMOd-5" value="GD_NguoiDung" style="text;html=1;align=center;verticalAlign=middle;whiteSpace=wrap;rounded=0;" parent="1" vertex="1">
          <mxGeometry x="455" y="90" width="60" height="30" as="geometry" />
        </mxCell>
        <mxCell id="0OqVhHqsOl2ay1qzQMOd-9" value="" style="html=1;points=[[0,0,0,0,5],[0,1,0,0,-5],[1,0,0,0,5],[1,1,0,0,-5]];perimeter=orthogonalPerimeter;outlineConnect=0;targetShapes=umlLifeline;portConstraint=eastwest;newEdgeStyle={&quot;curved&quot;:0,&quot;rounded&quot;:0};" parent="1" vertex="1">
          <mxGeometry x="140" y="200" width="10" height="560" as="geometry" />
        </mxCell>
        <mxCell id="0OqVhHqsOl2ay1qzQMOd-12" value="" style="shape=umlLifeline;perimeter=lifelinePerimeter;whiteSpace=wrap;html=1;container=1;dropTarget=0;collapsible=0;recursiveResize=0;outlineConnect=0;portConstraint=eastwest;newEdgeStyle={&quot;curved&quot;:0,&quot;rounded&quot;:0};participant=umlBoundary;size=40;" parent="1" vertex="1">
          <mxGeometry x="270" y="130" width="50" height="100" as="geometry" />
        </mxCell>
        <mxCell id="0OqVhHqsOl2ay1qzQMOd-13" value="" style="html=1;points=[[0,0,0,0,5],[0,1,0,0,-5],[1,0,0,0,5],[1,1,0,0,-5]];perimeter=orthogonalPerimeter;outlineConnect=0;targetShapes=umlLifeline;portConstraint=eastwest;newEdgeStyle={&quot;curved&quot;:0,&quot;rounded&quot;:0};" parent="1" vertex="1">
          <mxGeometry x="290" y="220" width="10" height="140" as="geometry" />
        </mxCell>
        <mxCell id="0OqVhHqsOl2ay1qzQMOd-14" value="" style="endArrow=classic;html=1;rounded=0;" parent="1" source="0OqVhHqsOl2ay1qzQMOd-9" target="0OqVhHqsOl2ay1qzQMOd-13" edge="1">
          <mxGeometry width="50" height="50" relative="1" as="geometry">
            <mxPoint x="370" y="280" as="sourcePoint" />
            <mxPoint x="420" y="230" as="targetPoint" />
            <Array as="points">
              <mxPoint x="220" y="260" />
            </Array>
          </mxGeometry>
        </mxCell>
        <mxCell id="0OqVhHqsOl2ay1qzQMOd-15" value="1. Chọn biểu tượng người dùng" style="text;html=1;align=center;verticalAlign=middle;whiteSpace=wrap;rounded=0;" parent="1" vertex="1">
          <mxGeometry x="160" y="230" width="110" height="30" as="geometry" />
        </mxCell>
        <mxCell id="0OqVhHqsOl2ay1qzQMOd-17" value="" style="shape=umlLifeline;perimeter=lifelinePerimeter;whiteSpace=wrap;html=1;container=1;dropTarget=0;collapsible=0;recursiveResize=0;outlineConnect=0;portConstraint=eastwest;newEdgeStyle={&quot;curved&quot;:0,&quot;rounded&quot;:0};participant=umlBoundary;" parent="1" vertex="1">
          <mxGeometry x="465" y="130" width="50" height="300" as="geometry" />
        </mxCell>
        <mxCell id="0OqVhHqsOl2ay1qzQMOd-18" value="" style="shape=umlLifeline;perimeter=lifelinePerimeter;whiteSpace=wrap;html=1;container=1;dropTarget=0;collapsible=0;recursiveResize=0;outlineConnect=0;portConstraint=eastwest;newEdgeStyle={&quot;curved&quot;:0,&quot;rounded&quot;:0};participant=umlControl;" parent="1" vertex="1">
          <mxGeometry x="790" y="130" width="40" height="200" as="geometry" />
        </mxCell>
        <mxCell id="0OqVhHqsOl2ay1qzQMOd-19" value="Ctr_NguoiDung" style="text;html=1;align=center;verticalAlign=middle;whiteSpace=wrap;rounded=0;" parent="1" vertex="1">
          <mxGeometry x="780" y="90" width="60" height="30" as="geometry" />
        </mxCell>
        <mxCell id="0OqVhHqsOl2ay1qzQMOd-20" value="" style="html=1;points=[[0,0,0,0,5],[0,1,0,0,-5],[1,0,0,0,5],[1,1,0,0,-5]];perimeter=orthogonalPerimeter;outlineConnect=0;targetShapes=umlLifeline;portConstraint=eastwest;newEdgeStyle={&quot;curved&quot;:0,&quot;rounded&quot;:0};" parent="1" vertex="1">
          <mxGeometry x="805" y="325" width="10" height="425" as="geometry" />
        </mxCell>
        <mxCell id="0OqVhHqsOl2ay1qzQMOd-22" value="" style="endArrow=classic;html=1;rounded=0;" parent="1" target="0OqVhHqsOl2ay1qzQMOd-20" edge="1">
          <mxGeometry width="50" height="50" relative="1" as="geometry">
            <mxPoint x="495" y="384.5" as="sourcePoint" />
            <mxPoint x="687.5" y="384.5" as="targetPoint" />
          </mxGeometry>
        </mxCell>
        <mxCell id="0OqVhHqsOl2ay1qzQMOd-23" value="" style="shape=umlLifeline;perimeter=lifelinePerimeter;whiteSpace=wrap;html=1;container=1;dropTarget=0;collapsible=0;recursiveResize=0;outlineConnect=0;portConstraint=eastwest;newEdgeStyle={&quot;curved&quot;:0,&quot;rounded&quot;:0};participant=umlEntity;" parent="1" vertex="1">
          <mxGeometry x="930" y="130" width="40" height="200" as="geometry" />
        </mxCell>
        <mxCell id="0OqVhHqsOl2ay1qzQMOd-24" value="E_NguoiDung" style="text;html=1;align=center;verticalAlign=middle;whiteSpace=wrap;rounded=0;" parent="1" vertex="1">
          <mxGeometry x="920" y="90" width="60" height="30" as="geometry" />
        </mxCell>
        <mxCell id="0OqVhHqsOl2ay1qzQMOd-25" value="" style="html=1;points=[[0,0,0,0,5],[0,1,0,0,-5],[1,0,0,0,5],[1,1,0,0,-5]];perimeter=orthogonalPerimeter;outlineConnect=0;targetShapes=umlLifeline;portConstraint=eastwest;newEdgeStyle={&quot;curved&quot;:0,&quot;rounded&quot;:0};" parent="1" vertex="1">
          <mxGeometry x="945" y="325" width="10" height="305" as="geometry" />
        </mxCell>
        <mxCell id="0OqVhHqsOl2ay1qzQMOd-26" value="" style="endArrow=classic;html=1;rounded=0;" parent="1" source="0OqVhHqsOl2ay1qzQMOd-20" target="0OqVhHqsOl2ay1qzQMOd-25" edge="1">
          <mxGeometry width="50" height="50" relative="1" as="geometry">
            <mxPoint x="590" y="300" as="sourcePoint" />
            <mxPoint x="640" y="250" as="targetPoint" />
            <Array as="points">
              <mxPoint x="890" y="350" />
            </Array>
          </mxGeometry>
        </mxCell>
        <mxCell id="0OqVhHqsOl2ay1qzQMOd-28" value="3.1. Lấy danh sách người dùng" style="text;html=1;align=center;verticalAlign=middle;whiteSpace=wrap;rounded=0;" parent="1" vertex="1">
          <mxGeometry x="505" y="355" width="205" height="25" as="geometry" />
        </mxCell>
        <mxCell id="0OqVhHqsOl2ay1qzQMOd-30" value="" style="endArrow=classic;html=1;rounded=0;dashed=1;" parent="1" edge="1">
          <mxGeometry width="50" height="50" relative="1" as="geometry">
            <mxPoint x="945" y="429" as="sourcePoint" />
            <mxPoint x="815" y="429" as="targetPoint" />
          </mxGeometry>
        </mxCell>
        <mxCell id="0OqVhHqsOl2ay1qzQMOd-31" value="3.2.1. Get(Users)" style="text;html=1;align=center;verticalAlign=middle;whiteSpace=wrap;rounded=0;" parent="1" vertex="1">
          <mxGeometry x="825" y="325" width="105" height="30" as="geometry" />
        </mxCell>
        <mxCell id="0OqVhHqsOl2ay1qzQMOd-32" value="3.2.2. Return(Users)" style="text;html=1;align=center;verticalAlign=middle;whiteSpace=wrap;rounded=0;" parent="1" vertex="1">
          <mxGeometry x="825" y="400" width="120" height="30" as="geometry" />
        </mxCell>
        <mxCell id="0OqVhHqsOl2ay1qzQMOd-34" value="2. Hiển thị giao diện người dùng" style="text;html=1;align=center;verticalAlign=middle;whiteSpace=wrap;rounded=0;" parent="1" vertex="1">
          <mxGeometry x="300" y="310" width="180" height="30" as="geometry" />
        </mxCell>
        <mxCell id="0OqVhHqsOl2ay1qzQMOd-35" value="với chức năng quản trị viên" style="text;html=1;align=center;verticalAlign=middle;whiteSpace=wrap;rounded=0;" parent="1" vertex="1">
          <mxGeometry x="300" y="335" width="180" height="30" as="geometry" />
        </mxCell>
        <mxCell id="0OqVhHqsOl2ay1qzQMOd-37" value="" style="endArrow=classic;html=1;rounded=0;exitX=1;exitY=1;exitDx=0;exitDy=-5;exitPerimeter=0;" parent="1" target="0OqVhHqsOl2ay1qzQMOd-29" edge="1">
          <mxGeometry width="50" height="50" relative="1" as="geometry">
            <mxPoint x="300" y="339" as="sourcePoint" />
            <mxPoint x="445" y="339" as="targetPoint" />
          </mxGeometry>
        </mxCell>
        <mxCell id="0OqVhHqsOl2ay1qzQMOd-29" value="" style="html=1;points=[[0,0,0,0,5],[0,1,0,0,-5],[1,0,0,0,5],[1,1,0,0,-5]];perimeter=orthogonalPerimeter;outlineConnect=0;targetShapes=umlLifeline;portConstraint=eastwest;newEdgeStyle={&quot;curved&quot;:0,&quot;rounded&quot;:0};" parent="1" vertex="1">
          <mxGeometry x="485" y="310" width="10" height="480" as="geometry" />
        </mxCell>
        <mxCell id="0OqVhHqsOl2ay1qzQMOd-38" value="" style="endArrow=classic;html=1;rounded=0;exitX=1;exitY=0.7;exitDx=0;exitDy=0;exitPerimeter=0;" parent="1" edge="1">
          <mxGeometry width="50" height="50" relative="1" as="geometry">
            <mxPoint x="150" y="410" as="sourcePoint" />
            <mxPoint x="485" y="410" as="targetPoint" />
          </mxGeometry>
        </mxCell>
        <mxCell id="0OqVhHqsOl2ay1qzQMOd-39" value="3. Chọn mục danh sách tài khoản người dùng" style="text;html=1;align=center;verticalAlign=middle;whiteSpace=wrap;rounded=0;" parent="1" vertex="1">
          <mxGeometry x="190" y="380" width="250" height="30" as="geometry" />
        </mxCell>
        <mxCell id="0OqVhHqsOl2ay1qzQMOd-40" value="" style="endArrow=classic;html=1;rounded=0;" parent="1" edge="1">
          <mxGeometry width="50" height="50" relative="1" as="geometry">
            <mxPoint x="805" y="444" as="sourcePoint" />
            <mxPoint x="495" y="444" as="targetPoint" />
          </mxGeometry>
        </mxCell>
        <mxCell id="0OqVhHqsOl2ay1qzQMOd-41" value="4. Hiển thị danh sách người dùng" style="text;html=1;align=center;verticalAlign=middle;whiteSpace=wrap;rounded=0;" parent="1" vertex="1">
          <mxGeometry x="505" y="410" width="205" height="25" as="geometry" />
        </mxCell>
        <mxCell id="0OqVhHqsOl2ay1qzQMOd-42" value="" style="endArrow=classic;html=1;rounded=0;exitX=1;exitY=0.7;exitDx=0;exitDy=0;exitPerimeter=0;" parent="1" target="0OqVhHqsOl2ay1qzQMOd-29" edge="1">
          <mxGeometry width="50" height="50" relative="1" as="geometry">
            <mxPoint x="150" y="490" as="sourcePoint" />
            <mxPoint x="480" y="490" as="targetPoint" />
          </mxGeometry>
        </mxCell>
        <mxCell id="0OqVhHqsOl2ay1qzQMOd-43" value="5. Chọn tài khoản muốn xóa" style="text;html=1;align=center;verticalAlign=middle;whiteSpace=wrap;rounded=0;" parent="1" vertex="1">
          <mxGeometry x="190" y="460" width="250" height="30" as="geometry" />
        </mxCell>
        <mxCell id="0OqVhHqsOl2ay1qzQMOd-44" value="" style="shape=umlLifeline;perimeter=lifelinePerimeter;whiteSpace=wrap;html=1;container=1;dropTarget=0;collapsible=0;recursiveResize=0;outlineConnect=0;portConstraint=eastwest;newEdgeStyle={&quot;curved&quot;:0,&quot;rounded&quot;:0};participant=umlBoundary;" parent="1" vertex="1">
          <mxGeometry x="680" y="130" width="50" height="360" as="geometry" />
        </mxCell>
        <mxCell id="0OqVhHqsOl2ay1qzQMOd-45" value="" style="html=1;points=[[0,0,0,0,5],[0,1,0,0,-5],[1,0,0,0,5],[1,1,0,0,-5]];perimeter=orthogonalPerimeter;outlineConnect=0;targetShapes=umlLifeline;portConstraint=eastwest;newEdgeStyle={&quot;curved&quot;:0,&quot;rounded&quot;:0};" parent="1" vertex="1">
          <mxGeometry x="700" y="490" width="10" height="90" as="geometry" />
        </mxCell>
        <mxCell id="0OqVhHqsOl2ay1qzQMOd-46" value="" style="endArrow=classic;html=1;rounded=0;exitX=1;exitY=0.813;exitDx=0;exitDy=0;exitPerimeter=0;" parent="1" edge="1">
          <mxGeometry width="50" height="50" relative="1" as="geometry">
            <mxPoint x="494.9999999999998" y="519.9999999999999" as="sourcePoint" />
            <mxPoint x="700" y="519.9999999999999" as="targetPoint" />
          </mxGeometry>
        </mxCell>
        <mxCell id="0OqVhHqsOl2ay1qzQMOd-47" value="" style="endArrow=classic;html=1;rounded=0;" parent="1" source="0OqVhHqsOl2ay1qzQMOd-45" target="0OqVhHqsOl2ay1qzQMOd-20" edge="1">
          <mxGeometry width="50" height="50" relative="1" as="geometry">
            <mxPoint x="740" y="530" as="sourcePoint" />
            <mxPoint x="810" y="530" as="targetPoint" />
          </mxGeometry>
        </mxCell>
        <mxCell id="0OqVhHqsOl2ay1qzQMOd-48" value="6. Hiển thị giao diện thông báo" style="text;html=1;align=center;verticalAlign=middle;whiteSpace=wrap;rounded=0;" parent="1" vertex="1">
          <mxGeometry x="480" y="490" width="250" height="30" as="geometry" />
        </mxCell>
        <mxCell id="0OqVhHqsOl2ay1qzQMOd-49" value="GD_ThongBao" style="text;html=1;align=center;verticalAlign=middle;whiteSpace=wrap;rounded=0;" parent="1" vertex="1">
          <mxGeometry x="670" y="90" width="60" height="30" as="geometry" />
        </mxCell>
        <mxCell id="0OqVhHqsOl2ay1qzQMOd-50" value="7.0.1. Cập nhật" style="text;html=1;align=center;verticalAlign=middle;whiteSpace=wrap;rounded=0;" parent="1" vertex="1">
          <mxGeometry x="630" y="500" width="250" height="30" as="geometry" />
        </mxCell>
        <mxCell id="0OqVhHqsOl2ay1qzQMOd-51" value="" style="endArrow=classic;html=1;rounded=0;exitX=1.5;exitY=0.729;exitDx=0;exitDy=0;exitPerimeter=0;" parent="1" target="0OqVhHqsOl2ay1qzQMOd-25" edge="1">
          <mxGeometry width="50" height="50" relative="1" as="geometry">
            <mxPoint x="815" y="560.055" as="sourcePoint" />
            <mxPoint x="1005" y="410" as="targetPoint" />
            <Array as="points">
              <mxPoint x="940" y="560" />
            </Array>
          </mxGeometry>
        </mxCell>
        <mxCell id="0OqVhHqsOl2ay1qzQMOd-52" value="" style="endArrow=classic;html=1;rounded=0;dashed=1;" parent="1" edge="1">
          <mxGeometry width="50" height="50" relative="1" as="geometry">
            <mxPoint x="945" y="600" as="sourcePoint" />
            <mxPoint x="815" y="600" as="targetPoint" />
          </mxGeometry>
        </mxCell>
        <mxCell id="0OqVhHqsOl2ay1qzQMOd-53" value="7.0.2. Remove(Users)" style="text;html=1;align=center;verticalAlign=middle;whiteSpace=wrap;rounded=0;" parent="1" vertex="1">
          <mxGeometry x="815" y="530" width="135" height="30" as="geometry" />
        </mxCell>
        <mxCell id="0OqVhHqsOl2ay1qzQMOd-54" value="7.0.3. Return(Users)" style="text;html=1;align=center;verticalAlign=middle;whiteSpace=wrap;rounded=0;" parent="1" vertex="1">
          <mxGeometry x="810" y="570" width="135" height="30" as="geometry" />
        </mxCell>
        <mxCell id="0OqVhHqsOl2ay1qzQMOd-55" value="" style="endArrow=classic;html=1;rounded=0;" parent="1" edge="1">
          <mxGeometry width="50" height="50" relative="1" as="geometry">
            <mxPoint x="805" y="610" as="sourcePoint" />
            <mxPoint x="495" y="610" as="targetPoint" />
          </mxGeometry>
        </mxCell>
        <mxCell id="0OqVhHqsOl2ay1qzQMOd-56" value="8. Hiển thị danh sách người dùng" style="text;html=1;align=center;verticalAlign=middle;whiteSpace=wrap;rounded=0;" parent="1" vertex="1">
          <mxGeometry x="515" y="580" width="205" height="25" as="geometry" />
        </mxCell>
        <mxCell id="0OqVhHqsOl2ay1qzQMOd-57" value="frame" style="shape=umlFrame;whiteSpace=wrap;html=1;pointerEvents=0;" parent="1" vertex="1">
          <mxGeometry x="110" y="650" width="950" height="170" as="geometry" />
        </mxCell>
        <mxCell id="0OqVhHqsOl2ay1qzQMOd-60" value="" style="endArrow=classic;html=1;rounded=0;entryX=0;entryY=1;entryDx=0;entryDy=-5;entryPerimeter=0;" parent="1" edge="1">
          <mxGeometry width="50" height="50" relative="1" as="geometry">
            <mxPoint x="150" y="570" as="sourcePoint" />
            <mxPoint x="700" y="570" as="targetPoint" />
          </mxGeometry>
        </mxCell>
        <mxCell id="0OqVhHqsOl2ay1qzQMOd-61" value="7. Xác nhận" style="text;html=1;align=center;verticalAlign=middle;whiteSpace=wrap;rounded=0;" parent="1" vertex="1">
          <mxGeometry x="190" y="540" width="250" height="30" as="geometry" />
        </mxCell>
        <mxCell id="0OqVhHqsOl2ay1qzQMOd-62" value="" style="endArrow=classic;html=1;rounded=0;" parent="1" edge="1">
          <mxGeometry width="50" height="50" relative="1" as="geometry">
            <mxPoint x="150" y="700.0000000000001" as="sourcePoint" />
            <mxPoint x="805" y="700.0000000000001" as="targetPoint" />
          </mxGeometry>
        </mxCell>
        <mxCell id="0OqVhHqsOl2ay1qzQMOd-63" value="7.1. Hủy" style="text;html=1;align=center;verticalAlign=middle;whiteSpace=wrap;rounded=0;" parent="1" vertex="1">
          <mxGeometry x="190" y="670" width="250" height="30" as="geometry" />
        </mxCell>
        <mxCell id="0OqVhHqsOl2ay1qzQMOd-64" value="" style="endArrow=classic;html=1;rounded=0;" parent="1" edge="1">
          <mxGeometry width="50" height="50" relative="1" as="geometry">
            <mxPoint x="805" y="740" as="sourcePoint" />
            <mxPoint x="495" y="740" as="targetPoint" />
          </mxGeometry>
        </mxCell>
        <mxCell id="0OqVhHqsOl2ay1qzQMOd-65" value="8.2. Hiển thị danh sách người dùng" style="text;html=1;align=center;verticalAlign=middle;whiteSpace=wrap;rounded=0;" parent="1" vertex="1">
          <mxGeometry x="540" y="710" width="205" height="25" as="geometry" />
        </mxCell>
      </root>
    </mxGraphModel>
  </diagram>
</mxfile>
